<?xml version="1.0" encoding="UTF-8"?>
<svg id="a" data-name="alipayround" xmlns="http://www.w3.org/2000/svg" xmlns:xlink="http://www.w3.org/1999/xlink" viewBox="0 0 600 600.09">
  <defs>
    <clipPath id="b">
      <rect x="0" y="0" width="600" height="600.09" rx="300" ry="300" style="fill: none; stroke-width: 0px;"/>
    </clipPath>
  </defs>
  <rect x="0" y="0" width="600" height="600.09" rx="300" ry="300" style="fill: #1677ff; stroke-width: 0px;"/>
  <g style="clip-path: url(#b);">
    <path d="M471.09,365.48c-20.97-7-49.13-17.72-80.49-29.03,18.84-32.64,33.87-69.82,43.75-110.21h-103.34v-37.12h126.6v-20.72h-126.6v-61.88h-51.67c-9.07,0-9.07,8.92-9.07,8.92v52.96h-128.04v20.72h128.04v37.12h-105.72v20.72h205.03c-7.5,25.77-17.58,49.97-29.53,71.96-66.53-21.89-137.52-39.63-182.12-28.71-28.52,7.01-46.89,19.52-57.69,32.61-49.53,60.09-14.01,151.37,90.6,151.37,61.85,0,121.43-34.39,167.61-91.05,68.87,33.02,205.24,89.7,205.24,89.7l25.11-79.17s-42.23-2.98-117.73-28.2ZM181.1,439.24c-81.57,0-105.68-64.07-65.38-99.11,13.45-11.84,38.04-17.63,51.14-18.93,48.46-4.77,93.3,13.66,146.24,39.42-37.21,48.39-84.6,78.62-132,78.62Z" style="fill: #fff; stroke-width: 0px;"/>
  </g>
</svg>